<?xml version="1.0" encoding="utf-8"?>
<?xml-stylesheet type="text/xsl" href="rss1.xsl"?>
<rss version="2.0" xmlns:atom="http://www.w3.org/2005/Atom" xmlns:content="http://purl.org/rss/1.0/modules/content/" xmlns:dc="http://purl.org/dc/elements/1.1/" xmlns:media="http://search.yahoo.com/mrss/">
<channel>
 <title>Getty</title>
 <link>http://www.gettyimg.com/</link>
 <atom:link href="http://www.gettyimg.com/" rel="self" type="application/rss+xml" />

 
                <item>
                <title><![CDATA[【HD Live Performances】UPSCALE - Avril Lavigne - Hot (Friday Night Project 2007)HD Upscale]]></title>
                <link><![CDATA[https://sharemania.us/threads/avril-lavigne-hot-friday-night-project-2007-hd-upscale.234619/]]></link>
                <description><![CDATA[<article>
<blockquote class="messageText SelectQuoteContainer ugc baseHtml">
<img src="https://i.imgur.com/GgjZOrs.png" class="bbCodeImage LbImage" alt="[​IMG]" data-url="https://i.imgur.com/GgjZOrs.png" style=""> <img src="https://i.imgur.com/cfw7IVn.png" class="bbCodeImage LbImage" alt="[​IMG]" data-url="https://i.imgur.com/cfw7IVn.png" style=""> <img src="https://i.imgur.com/aSNUObp.png" class="bbCodeImage LbImage" alt="[​IMG]" data-url="https://i.imgur.com/aSNUObp.png" style=""> <img src="https://i.imgur.com/qAWuzOt.png" class="bbCodeImage LbImage" alt="[​IMG]" data-url="https://i.imgur.com/qAWuzOt.png" style=""> <br>
<br>
<div class="ToggleTriggerAnchor bbCodeSpoilerContainer">
<button type="button" class="button bbCodeSpoilerButton ToggleTrigger Tooltip JsOnly" data-target="> .SpoilerTarget"><span>Spoiler: <span class="SpoilerTitle">MediaInfo</span></span></button>
<div class="SpoilerTarget bbCodeSpoilerText">General<br>
File size : 571 MiB<br>
Duration : 3 min 4 s<br>
Overall bit rate : 26.0 Mb/s<br>
Writing application : Lavf60.14.101<br>
Writing library : Lavf60.14.101<br>
ErrorDetectionType : Per level 1<br>
<br>
Video<br>
ID : 1<br>
Format : HEVC<br>
Format/Info : High Efficiency Video Coding<br>
Format profile : Main@L6.2@High<br>
Codec ID : V_MPEGH/ISO/HEVC<br>
Duration : 3 min 4 s<br>
Bit rate : 23.2 Mb/s<br>
Width : 1 322 pixels<br>
Height : 1 080 pixels<br>
Display aspect ratio : 16:9<br>
Frame rate mode : Constant<br>
Frame rate : 25.000 FPS<br>
Color space : YUV<br>
Chroma subsampling : 4:2:0<br>
Bit depth : 8 bits<br>
Bits/(Pixel*Frame) : 0.649<br>
Stream size : 509 MiB (89%)<br>
Writing library : Lavc60.27.101 hevc_amf<br>
Default : No<br>
Forced : No<br>
Color range : Limited<br>
Transfer characteristics : BT.709<br>
Matrix coefficients : BT.709<br>
<br>
Audio<br>
ID : 2<br>
Format : PCM<br>
Format settings : Little / Signed<br>
Codec ID : A_PCM/INT/LIT<br>
Duration : 3 min 4 s<br>
Bit rate mode : Constant<br>
Bit rate : 2 304 kb/s<br>
Channel(s) : 2 channels<br>
Sampling rate : 48.0 kHz<br>
Bit depth : 24 bits<br>
Stream size : 50.6 MiB (9%)<br>
Writing library : Lavc60.27.101 hevc_amf<br>
Default : No<br>
Forced : No</div>
</div><br>
<div class="bbCodeBlock bbCodeVfcHH HiddenContent">
<div class="attribution type">Hidden Content:</div>
<blockquote>You must reply before you can see the hidden data contained here.</blockquote>
</div>
<div class="messageTextEndMarker">&nbsp;</div>
</blockquote>
</article>]]></description>
                <author><![CDATA[Avril1255]]></author>
                </item>

                
                <item>
                <title><![CDATA[【HD Live Performances】UPSCALE - Taylor Swift - You Belong With Me (Studio 330 Sessions) HD Upscale]]></title>
                <link><![CDATA[https://sharemania.us/threads/taylor-swift-you-belong-with-me-studio-330-sessions-hd-upscale.234617/]]></link>
                <description><![CDATA[<article>
<blockquote class="messageText SelectQuoteContainer ugc baseHtml">
<img src="https://i.imgur.com/4DkddIc.png" class="bbCodeImage LbImage" alt="[​IMG]" data-url="https://i.imgur.com/4DkddIc.png" style=""> <img src="https://i.imgur.com/IazZ4xT.png" class="bbCodeImage LbImage" alt="[​IMG]" data-url="https://i.imgur.com/IazZ4xT.png" style=""> <img src="https://i.imgur.com/7nYhvnz.png" class="bbCodeImage LbImage" alt="[​IMG]" data-url="https://i.imgur.com/7nYhvnz.png" style=""> <img src="https://i.imgur.com/2Q3mcIU.png" class="bbCodeImage LbImage" alt="[​IMG]" data-url="https://i.imgur.com/2Q3mcIU.png" style="">
<div class="ToggleTriggerAnchor bbCodeSpoilerContainer">
<button type="button" class="button bbCodeSpoilerButton ToggleTrigger Tooltip JsOnly" data-target="> .SpoilerTarget"><span>Spoiler: <span class="SpoilerTitle">MediaInfo</span></span></button>
<div class="SpoilerTarget bbCodeSpoilerText">General<br>
File size : 743 MiB<br>
Duration : 3 min 57 s<br>
Overall bit rate : 26.3 Mb/s<br>
major_brand : qt <br>
minor_version : 512<br>
compatible_brands : qt <br>
<br>
Video<br>
ID : 1<br>
Format : HEVC<br>
Format/Info : High Efficiency Video Coding<br>
Format profile : Main@L6.2@High<br>
Codec ID : hvc1<br>
Codec ID/Info : High Efficiency Video Coding<br>
Duration : 3 min 57 s<br>
Bit rate : 24.0 Mb/s<br>
Width : 1 550 pixels<br>
Height : 1 080 pixels<br>
Display aspect ratio : 1.276<br>
Frame rate mode : Constant<br>
Frame rate : 29.970 (30000/1001) FPS<br>
Color space : YUV<br>
Chroma subsampling : 4:2:0<br>
Bit depth : 8 bits<br>
Scan type : Progressive<br>
Bits/(Pixel*Frame) : 0.477<br>
Stream size : 678 MiB (91%)<br>
Color range : Limited<br>
Transfer characteristics : BT.709<br>
Matrix coefficients : BT.709<br>
Codec configuration box : hvcC<br>
<br>
Audio<br>
ID : 2<br>
Format : PCM<br>
Format settings : Little / Signed<br>
Codec ID : in24<br>
Duration : 3 min 57 s<br>
Bit rate mode : Constant<br>
Bit rate : 2 304 kb/s<br>
Channel(s) : 2 channels<br>
Channel layout : L R<br>
Sampling rate : 48.0 kHz<br>
Bit depth : 24 bits<br>
Stream size : 65.2 MiB (9%)<br>
Default : Yes<br>
Alternate group : 1</div>
</div><br>
<div class="bbCodeBlock bbCodeVfcHH HiddenContent">
<div class="attribution type">Hidden Content:</div>
<blockquote>You must reply before you can see the hidden data contained here.</blockquote>
</div>
<div class="messageTextEndMarker">&nbsp;</div>
</blockquote>
</article>]]></description>
                <author><![CDATA[Avril1255]]></author>
                </item>

                
                <item>
                <title><![CDATA[【Unreleased/Unofficial (lossy)】MP3 - Kylie Minogue - Tension In The Mix (Remix Project) 320kbps MP3]]></title>
                <link><![CDATA[https://sharemania.us/threads/kylie-minogue-tension-in-the-mix-remix-project-320kbps-mp3.234618/]]></link>
                <description><![CDATA[<article>
<blockquote class="messageText SelectQuoteContainer ugc baseHtml">
This is a collection of my favorite bootleg remixes from the Tension era. <br>
<img src="https://i.imgur.com/PVRG1tV.jpg" class="bbCodeImage LbImage" alt="[​IMG]" data-url="https://i.imgur.com/PVRG1tV.jpg" style=""><br>
<img src="https://i.imgur.com/ICtrTCT.jpg" class="bbCodeImage LbImage" alt="[​IMG]" data-url="https://i.imgur.com/ICtrTCT.jpg" style=""><br>
<div class="bbCodeBlock bbCodeVfcHH HiddenContent">
<div class="attribution type">Hidden Content:</div>
<blockquote>You must reply before you can see the hidden data contained here.</blockquote>
</div>
<div class="messageTextEndMarker">&nbsp;</div>
</blockquote>
</article>]]></description>
                <author><![CDATA[HeBop2012]]></author>
                </item>

                </channel></rss>